<svg xmlns="http://www.w3.org/2000/svg" version="1.1" xmlns:xlink="http://www.w3.org/1999/xlink" xmlns:svgjs="http://svgjs.dev/svgjs" width="2000" height="1500" viewBox="0 0 2000 1500"><rect width="2000" height="1500" fill="#393e46"></rect><g transform="matrix(0.75,0,0,0.75,249.090909090909,282.7536437246963)"><svg viewBox="0 0 396 247" data-background-color="#393e46" preserveAspectRatio="xMidYMid meet" height="1247" width="2000" xmlns="http://www.w3.org/2000/svg" xmlns:xlink="http://www.w3.org/1999/xlink"><g id="tight-bounds" transform="matrix(1,0,0,1,0.2400000000000091,-0.09999999999999432)"><svg viewBox="0 0 395.52 247.2" height="247.2" width="395.52"><g><svg></svg></g><g><svg viewBox="0 0 395.52 247.2" height="247.2" width="395.52"><mask id="18e1ed61-e418-4e61-ad4a-599c9e0cc82e"><rect width="395.52" height="247.2" fill="white"></rect><g transform="matrix(1,0,0,1,2.842170943040401e-14,85.03299761948361)" id="clone"><svg viewBox="0 0 395.5199999999999 77.13400476103276" height="77.13400476103276" width="395.5199999999999"><g><svg viewBox="0 0 395.5199999999999 77.13400476103276" height="77.13400476103276" width="395.5199999999999"><g><svg viewBox="0 0 395.52000000000004 77.13400476103277" height="77.13400476103276" width="395.5199999999999"><g><svg viewBox="0 0 395.52000000000004 77.13400476103277" height="77.13400476103277" width="395.52000000000004"><g id="SvgjsG4512"><svg viewBox="0 0 395.52000000000004 77.13400476103277" height="77.13400476103277" width="395.52000000000004" id="SvgjsSvg4511"><g><svg viewBox="0 0 395.52000000000004 77.13400476103277" height="77.13400476103277" width="395.52000000000004"><g transform="matrix(1,0,0,1,0,0)"><svg width="395.52000000000004" viewBox="-3.15 -40.1 279.41999999999996 56.10000000000001" height="77.13400476103277" data-palette-color="#00fff5"><path d="M14.7-25.4Q19.1-25.4 21.43-22.5 23.75-19.6 23.75-15L23.75-15Q23.75-14.15 23.55-12.45L23.55-12.45Q22.8-6.65 19.23-3.08 15.65 0.5 10.15 0.5L10.15 0.5Q8.8 0.5 4.4-0.15L4.4-0.15 2.6 13-0.15 13 3.9-17.7Q4.05-18.7 4.05-19.5L4.05-19.5Q4.05-22.05 2.65-23.45L2.65-23.45 4.75-25.35Q5.5-24.75 6.13-23.7 6.75-22.65 6.95-21.45L6.95-21.45Q9.5-25.4 14.7-25.4L14.7-25.4ZM10-2.2Q14.6-2.2 17.32-4.98 20.05-7.75 20.65-12.5L20.65-12.5Q20.8-13.7 20.8-14.8L20.8-14.8Q20.8-18.35 19.25-20.53 17.7-22.7 14.75-22.7L14.75-22.7Q11.9-22.7 9.47-20.9 7.05-19.1 6.45-16.3L6.45-16.3 4.6-2.65Q9-2.2 10-2.2L10-2.2ZM40.5-25.5Q42-25.5 43.45-25.05L43.45-25.05 43.2-22.25Q41.85-22.6 40.5-22.6L40.5-22.6Q37.95-22.6 36.3-21.25L36.3-21.25Q34.45-20.1 33-17.75L33-17.75 30.6 0 27.7 0 30-17.6Q30.15-18.6 30.15-19.4L30.15-19.4Q30.15-21.95 28.75-23.35L28.75-23.35 30.9-25.25Q31.7-24.7 32.32-23.58 32.95-22.45 33.1-21.2L33.1-21.2Q34.8-23.55 36.2-24.45L36.2-24.45Q38.05-25.5 40.5-25.5L40.5-25.5ZM48.45-4.1Q48.4-3.4 48.75-2.98 49.1-2.55 49.7-2.55L49.7-2.55Q50.75-2.55 51.3-3.45L51.3-3.45 53.3-1.7Q52.8-0.9 51.77-0.33 50.75 0.25 49.6 0.25L49.6 0.25Q47.6 0.25 46.47-1.05 45.35-2.35 45.6-4.35L45.6-4.35 48.3-25 51.2-25 48.45-4.1ZM50.15-28.25Q49.35-28.25 48.8-28.8 48.25-29.35 48.25-30.15L48.25-30.15Q48.25-31.15 48.9-31.83 49.55-32.5 50.45-32.5L50.45-32.5Q51.3-32.5 51.85-31.95 52.4-31.4 52.4-30.55L52.4-30.55Q52.4-29.6 51.72-28.93 51.05-28.25 50.15-28.25L50.15-28.25ZM92.89-3.45L94.84-1.7Q94.39-0.9 93.37-0.33 92.34 0.25 91.19 0.25L91.19 0.25Q89.19 0.25 88.07-1.05 86.94-2.35 87.19-4.35L87.19-4.35 88.94-17.6Q89.14-20.3 88.17-21.53 87.19-22.75 85.04-22.75L85.04-22.75Q80.59-22.75 77.39-17.75L77.39-17.75 74.99 0 72.09 0 74.34-16.9Q74.44-17.9 74.44-18.35L74.44-18.35Q74.44-20.45 73.49-21.6 72.54-22.75 70.59-22.75L70.59-22.75Q68.29-22.75 66.17-21.33 64.04-19.9 62.94-17.85L62.94-17.85 60.54 0 57.64 0 59.94-17.6Q60.09-18.6 60.09-19.4L60.09-19.4Q60.09-21.95 58.69-23.35L58.69-23.35 60.84-25.25Q61.59-24.65 62.22-23.6 62.84-22.55 63.04-21.3L63.04-21.3Q66.34-25.45 70.89-25.45L70.89-25.45Q73.34-25.45 74.94-24.28 76.54-23.1 77.09-20.9L77.09-20.9Q80.49-25.45 85.14-25.45L85.14-25.45Q88.24-25.45 90.07-23.65 91.89-21.85 91.89-18.85L91.89-18.85Q91.89-18.45 91.79-17.45L91.79-17.45 90.04-4.1Q89.99-3.4 90.34-2.98 90.69-2.55 91.24-2.55L91.24-2.55Q91.74-2.55 92.19-2.8 92.64-3.05 92.89-3.45L92.89-3.45ZM107.64 0.5Q102.79 0.5 100.24-2.23 97.69-4.95 97.69-9.45L97.69-9.45Q97.69-10.55 97.84-11.65L97.84-11.65Q98.29-15.05 99.92-18.2 101.54-21.35 104.29-23.38 107.04-25.4 110.59-25.4L110.59-25.4Q113.99-25.4 116.27-23.55 118.54-21.7 118.54-18.6L118.54-18.6Q118.54-14.45 115.19-12.2 111.84-9.95 106.09-10L106.09-10 100.69-9.95Q100.59-6.15 102.37-4.17 104.14-2.2 107.69-2.2L107.69-2.2Q109.94-2.2 111.89-2.85 113.84-3.5 115.79-4.8L115.79-4.8 117.09-2.7Q115.04-1.2 112.59-0.35 110.14 0.5 107.64 0.5L107.64 0.5ZM106.94-12.6Q110.64-12.6 112.97-13.88 115.29-15.15 115.64-17.9L115.64-17.9Q115.69-18.15 115.69-18.7L115.69-18.7Q115.69-20.75 114.27-21.73 112.84-22.7 110.64-22.7L110.64-22.7Q107.89-22.7 105.77-21.08 103.64-19.45 102.39-17.07 101.14-14.7 100.89-12.5L100.89-12.5 106.94-12.6ZM139.74-25.2Q140.59-31.45 142.81-34.27 145.04-37.1 149.14-37.1L149.14-37.1Q152.14-37.1 153.79-35.48 155.44-33.85 155.44-30.95L155.44-30.95Q155.44-30.45 155.34-29.45L155.34-29.45Q154.84-25.2 151.86-22.85 148.89-20.5 144.44-20.75L144.44-20.75 142.09-20.9 140.99-12.6 148.14-12.6 147.79-9.9 140.64-9.9 137.59 13 134.69 13 139.74-25.2ZM144.64-23.35Q148.19-23.35 150.36-25.38 152.54-27.4 152.54-30.85L152.54-30.85Q152.54-32.6 151.64-33.5 150.74-34.4 148.99-34.4L148.99-34.4Q146.39-34.4 144.81-32.13 143.24-29.85 142.64-25.15L142.64-25.15 142.39-23.35 144.64-23.35ZM158.33-4.1Q158.28-3.4 158.63-2.98 158.98-2.55 159.58-2.55L159.58-2.55Q160.63-2.55 161.18-3.45L161.18-3.45 163.18-1.7Q162.68-0.9 161.66-0.33 160.63 0.25 159.48 0.25L159.48 0.25Q157.48 0.25 156.36-1.05 155.23-2.35 155.48-4.35L155.48-4.35 158.18-25 161.08-25 158.33-4.1ZM160.03-28.25Q159.23-28.25 158.68-28.8 158.13-29.35 158.13-30.15L158.13-30.15Q158.13-31.15 158.78-31.83 159.43-32.5 160.33-32.5L160.33-32.5Q161.18-32.5 161.73-31.95 162.28-31.4 162.28-30.55L162.28-30.55Q162.28-29.6 161.61-28.93 160.93-28.25 160.03-28.25L160.03-28.25ZM173.38 0.5Q170.48 0.5 169.11-0.98 167.73-2.45 167.73-5.3L167.73-5.3Q167.73-6.25 167.88-7.3L167.88-7.3 171.03-31.25 173.93-31.25 173.08-24.9 180.73-24.9 180.33-22.2 172.73-22.2 170.73-7.1Q170.63-6.1 170.63-5.65L170.63-5.65Q170.63-4 171.28-3.1 171.93-2.2 173.48-2.2L173.48-2.2Q176.33-2.2 178.23-5.3L178.23-5.3 180.28-3.65Q178.88-1.55 177.23-0.53 175.58 0.5 173.38 0.5L173.38 0.5ZM207.03-3.45L208.98-1.7Q208.53-0.9 207.5-0.33 206.48 0.25 205.33 0.25L205.33 0.25Q203.33 0.25 202.2-1.05 201.08-2.35 201.33-4.35L201.33-4.35 202.98-16.9Q203.08-17.9 203.08-18.4L203.08-18.4Q203.08-22.8 198.63-22.8L198.63-22.8Q196.13-22.8 194.18-21.5 192.23-20.2 190.08-17.65L190.08-17.65 187.68 0 184.78 0 187.13-17.65Q187.23-18.85 187.23-19.3L187.23-19.3Q187.23-21.95 185.88-23.4L185.88-23.4 187.98-25.3Q188.78-24.7 189.43-23.58 190.08-22.45 190.23-21.15L190.23-21.15Q192.13-23.45 194.28-24.48 196.43-25.5 198.98-25.5L198.98-25.5Q202.53-25.5 204.4-23.6 206.28-21.7 206.03-18L206.03-18 204.18-4.1Q204.13-3.4 204.48-2.98 204.83-2.55 205.38-2.55L205.38-2.55Q205.88-2.55 206.33-2.8 206.78-3.05 207.03-3.45L207.03-3.45ZM221.78 0.5Q216.93 0.5 214.38-2.23 211.83-4.95 211.83-9.45L211.83-9.45Q211.83-10.55 211.98-11.65L211.98-11.65Q212.43-15.05 214.05-18.2 215.68-21.35 218.43-23.38 221.18-25.4 224.73-25.4L224.73-25.4Q228.13-25.4 230.4-23.55 232.68-21.7 232.68-18.6L232.68-18.6Q232.68-14.45 229.33-12.2 225.98-9.95 220.23-10L220.23-10 214.83-9.95Q214.73-6.15 216.5-4.17 218.28-2.2 221.83-2.2L221.83-2.2Q224.08-2.2 226.03-2.85 227.98-3.5 229.93-4.8L229.93-4.8 231.23-2.7Q229.18-1.2 226.73-0.35 224.28 0.5 221.78 0.5L221.78 0.5ZM221.08-12.6Q224.78-12.6 227.1-13.88 229.43-15.15 229.78-17.9L229.78-17.9Q229.83-18.15 229.83-18.7L229.83-18.7Q229.83-20.75 228.4-21.73 226.98-22.7 224.78-22.7L224.78-22.7Q222.03-22.7 219.9-21.08 217.78-19.45 216.53-17.07 215.28-14.7 215.03-12.5L215.03-12.5 221.08-12.6ZM243.17 0.6Q240.47 0.6 238.37-0.45 236.27-1.5 234.47-3.35L234.47-3.35 236.27-5.25Q237.87-3.75 239.55-2.93 241.22-2.1 243.32-2.1L243.32-2.1Q246.22-2.1 247.97-3.63 249.72-5.15 249.72-7.7L249.72-7.7Q249.72-8.8 249.12-9.53 248.52-10.25 247.6-10.73 246.67-11.2 244.22-12.35L244.22-12.35Q241.97-13.35 240.7-14.08 239.42-14.8 238.67-15.85 237.92-16.9 237.92-18.4L237.92-18.4Q237.92-19 237.97-19.3L237.97-19.3Q238.32-22.2 240.55-23.93 242.77-25.65 246.12-25.65L246.12-25.65Q247.92-25.65 249.6-25.13 251.27-24.6 252.37-23.65L252.37-23.65 250.97-21.6Q249.07-22.95 246.17-22.95L246.17-22.95Q243.67-22.95 242.27-21.85 240.87-20.75 240.87-18.8L240.87-18.8Q240.87-17.8 241.47-17.13 242.07-16.45 242.9-16.03 243.72-15.6 245.97-14.55L245.97-14.55Q249.52-13 251.1-11.63 252.67-10.25 252.67-7.9L252.67-7.9Q252.67-7.2 252.62-6.85L252.62-6.85Q252.17-3.45 249.6-1.43 247.02 0.6 243.17 0.6L243.17 0.6ZM263.77 0.6Q261.07 0.6 258.97-0.45 256.87-1.5 255.07-3.35L255.07-3.35 256.87-5.25Q258.47-3.75 260.14-2.93 261.82-2.1 263.92-2.1L263.92-2.1Q266.82-2.1 268.57-3.63 270.32-5.15 270.32-7.7L270.32-7.7Q270.32-8.8 269.72-9.53 269.12-10.25 268.19-10.73 267.27-11.2 264.82-12.35L264.82-12.35Q262.57-13.35 261.3-14.08 260.02-14.8 259.27-15.85 258.52-16.9 258.52-18.4L258.52-18.4Q258.52-19 258.57-19.3L258.57-19.3Q258.92-22.2 261.14-23.93 263.37-25.65 266.72-25.65L266.72-25.65Q268.52-25.65 270.19-25.13 271.87-24.6 272.97-23.65L272.97-23.65 271.57-21.6Q269.67-22.95 266.77-22.95L266.77-22.95Q264.27-22.95 262.87-21.85 261.47-20.75 261.47-18.8L261.47-18.8Q261.47-17.8 262.07-17.13 262.67-16.45 263.5-16.03 264.32-15.6 266.57-14.55L266.57-14.55Q270.12-13 271.69-11.63 273.27-10.25 273.27-7.9L273.27-7.9Q273.27-7.2 273.22-6.85L273.22-6.85Q272.77-3.45 270.19-1.43 267.62 0.6 263.77 0.6L263.77 0.6Z" opacity="1" transform="matrix(1,0,0,1,0,0)" fill="black" class="wordmark-text-0" id="SvgjsPath4510" stroke-width="5" stroke="black" stroke-linejoin="round"></path></svg></g></svg></g></svg></g></svg></g></svg></g></svg></g></svg></g></mask><g mask="url(#18e1ed61-e418-4e61-ad4a-599c9e0cc82e)"><g><path d="M42.79 23.827c-4.411 0-7.778 0.348-10.099 1.045-2.322 0.697-4.295 1.973-5.921 3.83v0c-1.625 1.161-3.181 3.018-4.666 5.572-1.532 2.554-2.415 4.875-2.647 6.965v0l-18.457-1.741c1.857-10.68 6.152-19.386 12.885-26.118v0c4.179-3.018 8.66-5.224 13.443-6.617 4.736-1.393 10.587-2.206 17.551-2.438v0h72.436c18.109 0 32.108 5.572 41.998 16.716 9.844 11.144 14.766 25.886 14.766 44.227v0c0 4.411-0.348 9.054-1.045 13.93v0c-3.25 24.377-12.699 42.765-28.347 55.163-15.694 12.444-34.105 18.666-55.232 18.666v0c-6.268 0-14.626-0.58-25.074-1.741v0l1.393-18.806c10.447 0.697 17.993 1.045 22.636 1.045v0c38.075 0 59.55-18.689 64.426-56.068v0c0.464-2.786 0.697-6.733 0.697-11.84v0c0-14.162-3.715-24.679-11.144-31.552-7.429-6.826-17.877-10.238-31.343-10.238v0h-48.406l-28.905 219.048h-20.198zM244.425 24.175c-4.411 0-7.778 0.348-10.099 1.045-2.322 0.697-4.295 1.973-5.92 3.831v0c-1.625 1.161-3.181 3.018-4.667 5.572-1.532 2.554-2.415 4.875-2.646 6.965v0l-18.458-1.742c1.857-10.68 6.152-19.386 12.886-26.118v0c4.179-3.018 8.66-5.224 13.442-6.617 4.736-1.393 10.587-2.206 17.552-2.438v0h148.005l-2.438 19.502h-127.807l-10.795 82.883h87.062l-2.786 19.502h-87.062l-15.323 116.315h-20.199z" fill="#00adb5" fill-rule="nonzero" stroke="none" stroke-width="1" stroke-linecap="butt" stroke-linejoin="miter" stroke-miterlimit="10" stroke-dasharray="" stroke-dashoffset="0" font-family="none" font-weight="none" font-size="none" text-anchor="none" style="mix-blend-mode: normal" data-fill-palette-color="tertiary"></path></g></g><g transform="matrix(1,0,0,1,2.842170943040401e-14,85.03299761948361)"><svg viewBox="0 0 395.5199999999999 77.13400476103276" height="77.13400476103276" width="395.5199999999999"><g><svg viewBox="0 0 395.5199999999999 77.13400476103276" height="77.13400476103276" width="395.5199999999999"><g><svg viewBox="0 0 395.52000000000004 77.13400476103277" height="77.13400476103276" width="395.5199999999999"><g><svg viewBox="0 0 395.52000000000004 77.13400476103277" height="77.13400476103277" width="395.52000000000004"><g id="textblocktransform"><svg viewBox="0 0 395.52000000000004 77.13400476103277" height="77.13400476103277" width="395.52000000000004" id="textblock"><g><svg viewBox="0 0 395.52000000000004 77.13400476103277" height="77.13400476103277" width="395.52000000000004"><g transform="matrix(1,0,0,1,0,0)"><svg width="395.52000000000004" viewBox="-3.15 -40.1 279.41999999999996 56.10000000000001" height="77.13400476103277" data-palette-color="#00fff5"><path d="M14.7-25.4Q19.1-25.4 21.43-22.5 23.75-19.6 23.75-15L23.75-15Q23.75-14.15 23.55-12.45L23.55-12.45Q22.8-6.65 19.23-3.08 15.65 0.5 10.15 0.5L10.15 0.5Q8.8 0.5 4.4-0.15L4.4-0.15 2.6 13-0.15 13 3.9-17.7Q4.05-18.7 4.05-19.5L4.05-19.5Q4.05-22.05 2.65-23.45L2.65-23.45 4.75-25.35Q5.5-24.75 6.13-23.7 6.75-22.65 6.95-21.45L6.95-21.45Q9.5-25.4 14.7-25.4L14.7-25.4ZM10-2.2Q14.6-2.2 17.32-4.98 20.05-7.75 20.65-12.5L20.65-12.5Q20.8-13.7 20.8-14.8L20.8-14.8Q20.8-18.35 19.25-20.53 17.7-22.7 14.75-22.7L14.75-22.7Q11.9-22.7 9.47-20.9 7.05-19.1 6.45-16.3L6.45-16.3 4.6-2.65Q9-2.2 10-2.2L10-2.2ZM40.5-25.5Q42-25.5 43.45-25.05L43.45-25.05 43.2-22.25Q41.85-22.6 40.5-22.6L40.5-22.6Q37.95-22.6 36.3-21.25L36.3-21.25Q34.45-20.1 33-17.75L33-17.75 30.6 0 27.7 0 30-17.6Q30.15-18.6 30.15-19.4L30.15-19.4Q30.15-21.95 28.75-23.35L28.75-23.35 30.9-25.25Q31.7-24.7 32.32-23.58 32.95-22.45 33.1-21.2L33.1-21.2Q34.8-23.55 36.2-24.45L36.2-24.45Q38.05-25.5 40.5-25.5L40.5-25.5ZM48.45-4.1Q48.4-3.4 48.75-2.98 49.1-2.55 49.7-2.55L49.7-2.55Q50.75-2.55 51.3-3.45L51.3-3.45 53.3-1.7Q52.8-0.9 51.77-0.33 50.75 0.25 49.6 0.25L49.6 0.25Q47.6 0.25 46.47-1.05 45.35-2.35 45.6-4.35L45.6-4.35 48.3-25 51.2-25 48.45-4.1ZM50.15-28.25Q49.35-28.25 48.8-28.8 48.25-29.35 48.25-30.15L48.25-30.15Q48.25-31.15 48.9-31.83 49.55-32.5 50.45-32.5L50.45-32.5Q51.3-32.5 51.85-31.95 52.4-31.4 52.4-30.55L52.4-30.55Q52.4-29.6 51.72-28.93 51.05-28.25 50.15-28.25L50.15-28.25ZM92.89-3.45L94.84-1.7Q94.39-0.9 93.37-0.33 92.34 0.25 91.19 0.25L91.19 0.25Q89.19 0.25 88.07-1.05 86.94-2.35 87.19-4.35L87.19-4.35 88.94-17.6Q89.14-20.3 88.17-21.53 87.19-22.75 85.04-22.75L85.04-22.75Q80.59-22.75 77.39-17.75L77.39-17.75 74.99 0 72.09 0 74.34-16.9Q74.44-17.9 74.44-18.35L74.44-18.35Q74.44-20.45 73.49-21.6 72.54-22.75 70.59-22.75L70.59-22.75Q68.29-22.75 66.17-21.33 64.04-19.9 62.94-17.85L62.94-17.85 60.54 0 57.64 0 59.94-17.6Q60.09-18.6 60.09-19.4L60.09-19.4Q60.09-21.95 58.69-23.35L58.69-23.35 60.84-25.25Q61.59-24.65 62.22-23.6 62.84-22.55 63.04-21.3L63.04-21.3Q66.34-25.45 70.89-25.45L70.89-25.45Q73.34-25.45 74.94-24.28 76.54-23.1 77.09-20.9L77.09-20.9Q80.49-25.45 85.14-25.45L85.14-25.45Q88.24-25.45 90.07-23.65 91.89-21.85 91.89-18.85L91.89-18.85Q91.89-18.45 91.79-17.45L91.79-17.45 90.04-4.1Q89.99-3.4 90.34-2.98 90.69-2.55 91.24-2.55L91.24-2.55Q91.74-2.55 92.19-2.8 92.64-3.05 92.89-3.45L92.89-3.45ZM107.64 0.5Q102.79 0.5 100.24-2.23 97.69-4.95 97.69-9.45L97.69-9.45Q97.69-10.55 97.84-11.65L97.84-11.65Q98.29-15.05 99.92-18.2 101.54-21.35 104.29-23.38 107.04-25.4 110.59-25.4L110.59-25.4Q113.99-25.4 116.27-23.55 118.54-21.7 118.54-18.6L118.54-18.6Q118.54-14.45 115.19-12.2 111.84-9.95 106.09-10L106.09-10 100.69-9.95Q100.59-6.15 102.37-4.17 104.14-2.2 107.69-2.2L107.69-2.2Q109.94-2.2 111.89-2.85 113.84-3.5 115.79-4.8L115.79-4.8 117.09-2.7Q115.04-1.2 112.59-0.35 110.14 0.5 107.64 0.5L107.64 0.5ZM106.94-12.6Q110.64-12.6 112.97-13.88 115.29-15.15 115.64-17.9L115.64-17.9Q115.69-18.15 115.69-18.7L115.69-18.7Q115.69-20.75 114.27-21.73 112.84-22.7 110.64-22.7L110.64-22.7Q107.89-22.7 105.77-21.08 103.64-19.45 102.39-17.07 101.14-14.7 100.89-12.5L100.89-12.5 106.94-12.6ZM139.74-25.2Q140.59-31.45 142.81-34.27 145.04-37.1 149.14-37.1L149.14-37.1Q152.14-37.1 153.79-35.48 155.44-33.85 155.44-30.95L155.44-30.95Q155.44-30.45 155.34-29.45L155.34-29.45Q154.84-25.2 151.86-22.85 148.89-20.5 144.44-20.75L144.44-20.75 142.09-20.9 140.99-12.6 148.14-12.6 147.79-9.9 140.64-9.9 137.59 13 134.69 13 139.74-25.2ZM144.64-23.35Q148.19-23.35 150.36-25.38 152.54-27.4 152.54-30.85L152.54-30.85Q152.54-32.6 151.64-33.5 150.74-34.4 148.99-34.4L148.99-34.4Q146.39-34.4 144.81-32.13 143.24-29.85 142.64-25.15L142.64-25.15 142.39-23.35 144.64-23.35ZM158.33-4.1Q158.28-3.4 158.63-2.98 158.98-2.55 159.58-2.55L159.58-2.55Q160.63-2.55 161.18-3.45L161.18-3.45 163.18-1.7Q162.68-0.9 161.66-0.33 160.63 0.25 159.48 0.25L159.48 0.25Q157.48 0.25 156.36-1.05 155.23-2.35 155.48-4.35L155.48-4.35 158.18-25 161.08-25 158.33-4.1ZM160.03-28.25Q159.23-28.25 158.68-28.8 158.13-29.35 158.13-30.15L158.13-30.15Q158.13-31.15 158.78-31.83 159.43-32.5 160.33-32.5L160.33-32.5Q161.18-32.5 161.73-31.95 162.28-31.4 162.28-30.55L162.28-30.55Q162.28-29.6 161.61-28.93 160.93-28.25 160.03-28.25L160.03-28.25ZM173.38 0.5Q170.48 0.5 169.11-0.98 167.73-2.45 167.73-5.3L167.73-5.3Q167.73-6.25 167.88-7.3L167.88-7.3 171.03-31.25 173.93-31.25 173.08-24.9 180.73-24.9 180.33-22.2 172.73-22.2 170.73-7.1Q170.63-6.1 170.63-5.65L170.63-5.65Q170.63-4 171.28-3.1 171.93-2.2 173.48-2.2L173.48-2.2Q176.33-2.2 178.23-5.3L178.23-5.3 180.28-3.65Q178.88-1.55 177.23-0.53 175.58 0.5 173.38 0.5L173.38 0.5ZM207.03-3.45L208.98-1.7Q208.53-0.9 207.5-0.33 206.48 0.25 205.33 0.25L205.33 0.25Q203.33 0.25 202.2-1.05 201.08-2.35 201.33-4.35L201.33-4.35 202.98-16.9Q203.08-17.9 203.08-18.4L203.08-18.4Q203.08-22.8 198.63-22.8L198.63-22.8Q196.13-22.8 194.18-21.5 192.23-20.2 190.08-17.65L190.08-17.65 187.68 0 184.78 0 187.13-17.65Q187.23-18.85 187.23-19.3L187.23-19.3Q187.23-21.95 185.88-23.4L185.88-23.4 187.98-25.3Q188.78-24.7 189.43-23.58 190.08-22.45 190.23-21.15L190.23-21.15Q192.13-23.45 194.28-24.48 196.43-25.5 198.98-25.5L198.98-25.5Q202.53-25.5 204.4-23.6 206.28-21.7 206.03-18L206.03-18 204.18-4.1Q204.13-3.4 204.48-2.98 204.83-2.55 205.38-2.55L205.38-2.55Q205.88-2.55 206.33-2.8 206.78-3.05 207.03-3.45L207.03-3.45ZM221.78 0.5Q216.93 0.5 214.38-2.23 211.83-4.95 211.83-9.45L211.83-9.45Q211.83-10.55 211.98-11.65L211.98-11.65Q212.43-15.05 214.05-18.2 215.68-21.35 218.43-23.38 221.18-25.4 224.73-25.4L224.73-25.4Q228.13-25.4 230.4-23.55 232.68-21.7 232.68-18.6L232.68-18.6Q232.68-14.45 229.33-12.2 225.98-9.95 220.23-10L220.23-10 214.83-9.95Q214.73-6.15 216.5-4.17 218.28-2.2 221.83-2.2L221.83-2.2Q224.08-2.2 226.03-2.85 227.98-3.5 229.93-4.8L229.93-4.8 231.23-2.7Q229.18-1.2 226.73-0.35 224.28 0.5 221.78 0.5L221.78 0.5ZM221.08-12.6Q224.78-12.6 227.1-13.88 229.43-15.15 229.78-17.9L229.78-17.9Q229.83-18.15 229.83-18.7L229.83-18.7Q229.83-20.75 228.4-21.73 226.98-22.7 224.78-22.7L224.78-22.7Q222.03-22.7 219.9-21.08 217.78-19.45 216.53-17.07 215.28-14.7 215.03-12.5L215.03-12.5 221.08-12.6ZM243.17 0.6Q240.47 0.6 238.37-0.45 236.27-1.5 234.47-3.35L234.47-3.35 236.27-5.25Q237.87-3.75 239.55-2.93 241.22-2.1 243.32-2.1L243.32-2.1Q246.22-2.1 247.97-3.63 249.72-5.15 249.72-7.7L249.72-7.7Q249.72-8.8 249.12-9.53 248.52-10.25 247.6-10.73 246.67-11.2 244.22-12.35L244.22-12.35Q241.97-13.35 240.7-14.08 239.42-14.8 238.67-15.85 237.92-16.9 237.92-18.4L237.92-18.4Q237.92-19 237.97-19.3L237.97-19.3Q238.32-22.2 240.55-23.93 242.77-25.65 246.12-25.65L246.12-25.65Q247.92-25.65 249.6-25.13 251.27-24.6 252.37-23.65L252.37-23.65 250.97-21.6Q249.07-22.95 246.17-22.95L246.17-22.95Q243.67-22.95 242.27-21.85 240.87-20.75 240.87-18.8L240.87-18.8Q240.87-17.8 241.47-17.13 242.07-16.45 242.9-16.03 243.72-15.6 245.97-14.55L245.97-14.55Q249.52-13 251.1-11.63 252.67-10.25 252.67-7.9L252.67-7.9Q252.67-7.2 252.62-6.85L252.62-6.85Q252.17-3.45 249.6-1.43 247.02 0.6 243.17 0.6L243.17 0.6ZM263.77 0.6Q261.07 0.6 258.97-0.45 256.87-1.5 255.07-3.35L255.07-3.35 256.87-5.25Q258.47-3.75 260.14-2.93 261.82-2.1 263.92-2.1L263.92-2.1Q266.82-2.1 268.57-3.63 270.32-5.15 270.32-7.7L270.32-7.7Q270.32-8.8 269.72-9.53 269.12-10.25 268.19-10.73 267.27-11.2 264.82-12.35L264.82-12.35Q262.57-13.35 261.3-14.08 260.02-14.8 259.27-15.85 258.52-16.9 258.52-18.4L258.52-18.4Q258.52-19 258.57-19.3L258.57-19.3Q258.92-22.2 261.14-23.93 263.37-25.65 266.72-25.65L266.72-25.65Q268.52-25.65 270.19-25.13 271.87-24.6 272.97-23.65L272.97-23.65 271.57-21.6Q269.67-22.95 266.77-22.95L266.77-22.95Q264.27-22.95 262.87-21.85 261.47-20.75 261.47-18.8L261.47-18.8Q261.47-17.8 262.07-17.13 262.67-16.45 263.5-16.03 264.32-15.6 266.57-14.55L266.57-14.55Q270.12-13 271.69-11.63 273.27-10.25 273.27-7.9L273.27-7.9Q273.27-7.2 273.22-6.85L273.22-6.85Q272.77-3.45 270.19-1.43 267.62 0.6 263.77 0.6L263.77 0.6Z" opacity="1" transform="matrix(1,0,0,1,0,0)" fill="#00fff5" class="wordmark-text-0" data-fill-palette-color="primary" id="text-0"></path></svg></g></svg></g></svg></g></svg></g></svg></g></svg></g></svg></g></svg></g><defs></defs></svg><rect width="395.52" height="247.2" fill="none" stroke="none" visibility="hidden"></rect></g></svg></g></svg>